<svg width="24" height="24" viewBox="0 0 24 24" fill="none" xmlns="http://www.w3.org/2000/svg">
<path d="M4.5 0V24H22.5V0H4.5ZM13.5 6.0075C14.2937 6.0075 15.0548 6.32278 15.616 6.88398C16.1772 7.44519 16.4925 8.20634 16.4925 9C16.4925 9.79366 16.1772 10.5548 15.616 11.116C15.0548 11.6772 14.2937 11.9925 13.5 11.9925C12.7063 11.9925 11.9452 11.6772 11.384 11.116C10.8228 10.5548 10.5075 9.79366 10.5075 9C10.5075 8.20634 10.8228 7.44519 11.384 6.88398C11.9452 6.32278 12.7063 6.0075 13.5 6.0075ZM18 18H9V16.5C9 15.7044 9.31607 14.9413 9.87868 14.3787C10.4413 13.8161 11.2044 13.5 12 13.5H15C15.7956 13.5 16.5587 13.8161 17.1213 14.3787C17.6839 14.9413 18 15.7044 18 16.5V18ZM1.5 1.5H3.75V6H1.5V1.5ZM1.5 7.5H3.75V12H1.5V7.5ZM1.5 13.5H3.75V18H1.5V13.5ZM1.5 19.5H3.75V24H1.5V19.5Z" fill="currentColor" />
</svg>
