<svg width="32" height="24" viewBox="0 0 32 24"   fill="none" xmlns="http://www.w3.org/2000/svg">
<g clip-path="url(#clip0_619_1082)">
<path d="M21.5 4C21.9643 4 22.4194 4.12929 22.8143 4.37337C23.2093 4.61746 23.5284 4.9667 23.7361 5.38197C23.9437 5.79723 24.0316 6.26211 23.9899 6.72451C23.9482 7.18692 23.7786 7.62858 23.5 8L22.5 9L19 5.5L20 4.5C20.418 4.186 20.937 4 21.5 4ZM9 15.5L8 20L12.5 19L21.75 9.75L18.25 6.25L9 15.5ZM19.181 9.681L12.181 16.681L11.319 15.819L18.319 8.819L19.181 9.681Z" fill="currentColor"/>
</g>
<defs>
<clipPath id="clip0_619_1082">
<rect width="16" height="16" fill="currentColor" transform="translate(8 4)"/>
</clipPath>
</defs>
</svg>
