<svg width="448" height="800" viewBox="0 0 448 800" fill="none" xmlns="http://www.w3.org/2000/svg">
<g clip-path="url(#clip0_2013_834)">
<path d="M531.6 388.9L436.2 456.4L508.65 433.9L531.6 388.9Z" fill="#297EA6" stroke="#297EA6" stroke-linejoin="bevel"/>
<path d="M414.15 297.1L436.2 456.4L531.6 388.9L414.15 297.1Z" fill="#205A7A" stroke="#205A7A" stroke-linejoin="bevel"/>
<path d="M537.6 236.95L414.15 297.1L531.6 388.9L537.6 236.95Z" fill="#297EA6" stroke="#297EA6" stroke-linejoin="bevel"/>
<path d="M537.6 236.95L502.65 181.45L414.15 297.1L537.6 236.95Z" fill="#277297" stroke="#277297" stroke-linejoin="bevel"/>
<path d="M436.2 456.4L548.1 633.55L508.65 433.9L436.2 456.4Z" fill="#277297" stroke="#277297" stroke-linejoin="bevel"/>
<path d="M346.2 289.45L343.2 306.1L414.15 297.1L346.2 289.45Z" fill="#1D4E6B" stroke="#1D4E6B" stroke-linejoin="bevel"/>
<path d="M414.15 297.1L343.2 306.1L436.2 456.4L414.15 297.1Z" fill="#00101C" stroke="#00101C" stroke-linejoin="bevel"/>
<path d="M386.7 149.65L346.2 289.45L414.15 297.1L386.7 149.65Z" fill="#112E42" stroke="#112E42" stroke-linejoin="bevel"/>
<path d="M383.7 671.35L471.15 644.05L436.2 456.4L383.7 671.35Z" fill="#277297" stroke="#277297" stroke-linejoin="bevel"/>
<path d="M436.2 456.4L471.15 644.05L548.1 633.55L436.2 456.4Z" fill="#1D4E6B" stroke="#1D4E6B" stroke-linejoin="bevel"/>
<path d="M405.15 41.65L386.7 149.65L502.65 181.45L405.15 41.65Z" fill="#00101C" stroke="#00101C" stroke-linejoin="bevel"/>
<path d="M502.65 181.45L386.7 149.65L414.15 297.1L502.65 181.45Z" fill="#00101C" stroke="#00101C" stroke-linejoin="bevel"/>
<path d="M277.2 597.55L383.7 671.35L436.2 456.4L277.2 597.55Z" fill="#19435D" stroke="#19435D" stroke-linejoin="bevel"/>
<path d="M471.15 644.05L442.65 805L532.65 695.35L471.15 644.05Z" fill="#0C2435" stroke="#0C2435" stroke-linejoin="bevel"/>
<path d="M162.75 321.1L248.25 462.4L343.2 306.1L162.75 321.1Z" fill="#205A7A" stroke="#205A7A" stroke-linejoin="bevel"/>
<path d="M343.2 306.1L248.25 462.4L436.2 456.4L343.2 306.1Z" fill="#1D4E6B" stroke="#1D4E6B" stroke-linejoin="bevel"/>
<path d="M162.75 321.1L343.2 306.1L179.25 235.45L162.75 321.1Z" fill="#205A7A" stroke="#205A7A" stroke-linejoin="bevel"/>
<path d="M248.25 462.4L277.2 597.55L436.2 456.4L248.25 462.4Z" fill="#0C2435" stroke="#0C2435" stroke-linejoin="bevel"/>
<path d="M460.65 -5L405.15 41.65L502.65 181.45L460.65 -5Z" fill="#277297" stroke="#277297" stroke-linejoin="bevel"/>
<path d="M386.7 149.65H281.25L346.2 289.45L386.7 149.65Z" fill="#205A7A" stroke="#205A7A" stroke-linejoin="bevel"/>
<path d="M405.15 41.65L281.25 149.65H386.7L405.15 41.65Z" fill="#00101C" stroke="#00101C" stroke-linejoin="bevel"/>
<path d="M442.65 805H615.6L532.65 695.35L442.65 805Z" fill="#19435D" stroke="#19435D" stroke-linejoin="bevel"/>
<path d="M412.2 805H442.65L383.7 671.35L412.2 805Z" fill="#205A7A" stroke="#205A7A" stroke-linejoin="bevel"/>
<path d="M383.7 671.35L442.65 805L471.15 644.05L383.7 671.35Z" fill="#0C2435" stroke="#0C2435" stroke-linejoin="bevel"/>
<path d="M179.25 235.45L343.2 306.1L346.2 289.45L179.25 235.45Z" fill="#1D4E6B" stroke="#1D4E6B" stroke-linejoin="bevel"/>
<path d="M248.25 462.4L150.75 651.55L277.2 597.55L248.25 462.4Z" fill="#19435D" stroke="#19435D" stroke-linejoin="bevel"/>
<path d="M281.25 149.65L179.25 235.45L346.2 289.45L281.25 149.65Z" fill="#1D4E6B" stroke="#1D4E6B" stroke-linejoin="bevel"/>
<path d="M136.95 -5L179.25 235.45L281.25 149.65L136.95 -5Z" fill="#277297" stroke="#277297" stroke-linejoin="bevel"/>
<path d="M266.25 744.85L412.2 805L383.7 671.35L266.25 744.85Z" fill="#15384F" stroke="#15384F" stroke-linejoin="bevel"/>
<path d="M460.65 -5H332.7L405.15 41.65L460.65 -5Z" fill="#246688" stroke="#246688" stroke-linejoin="bevel"/>
<path d="M405.15 41.65L332.7 -5L281.25 149.65L405.15 41.65Z" fill="#277297" stroke="#277297" stroke-linejoin="bevel"/>
<path d="M277.2 597.55L266.25 744.85L383.7 671.35L277.2 597.55Z" fill="#00101C" stroke="#00101C" stroke-linejoin="bevel"/>
<path d="M150.75 651.55L266.25 744.85L277.2 597.55L150.75 651.55Z" fill="#1D4E6B" stroke="#1D4E6B" stroke-linejoin="bevel"/>
<path d="M332.7 -5H272.25L281.25 149.65L332.7 -5Z" fill="#19435D" stroke="#19435D" stroke-linejoin="bevel"/>
<path d="M179.25 235.45L85.9502 310.45L162.75 321.1L179.25 235.45Z" fill="#15384F" stroke="#15384F" stroke-linejoin="bevel"/>
<path d="M162.75 321.1L34.9502 478.9L248.25 462.4L162.75 321.1Z" fill="#112E42" stroke="#112E42" stroke-linejoin="bevel"/>
<path d="M-36 188.95L85.95 310.45L179.25 235.45L-36 188.95Z" fill="#00101C" stroke="#00101C" stroke-linejoin="bevel"/>
<path d="M70.9502 606.85L150.75 651.55L248.25 462.4L70.9502 606.85Z" fill="#15384F" stroke="#15384F" stroke-linejoin="bevel"/>
<path d="M85.9502 310.45L34.9502 478.9L162.75 321.1L85.9502 310.45Z" fill="#1D4E6B" stroke="#1D4E6B" stroke-linejoin="bevel"/>
<path d="M34.9502 478.9L70.9502 606.85L248.25 462.4L34.9502 478.9Z" fill="#112E42" stroke="#112E42" stroke-linejoin="bevel"/>
<path d="M150.75 651.55L153.75 805L266.25 744.85L150.75 651.55Z" fill="#246688" stroke="#246688" stroke-linejoin="bevel"/>
<path d="M-36 327.1L21.45 348.1L85.95 310.45L-36 327.1Z" fill="#246688" stroke="#246688" stroke-linejoin="bevel"/>
<path d="M85.9502 310.45L21.4502 348.1L34.9502 478.9L85.9502 310.45Z" fill="#15384F" stroke="#15384F" stroke-linejoin="bevel"/>
<path d="M272.25 -5H136.95L281.25 149.65L272.25 -5Z" fill="#15384F" stroke="#15384F" stroke-linejoin="bevel"/>
<path d="M-36 495.55L6.45 519.55L34.95 478.9L-36 495.55Z" fill="#1D4E6B" stroke="#1D4E6B" stroke-linejoin="bevel"/>
<path d="M34.9502 478.9L6.4502 519.55L70.9502 606.85L34.9502 478.9Z" fill="#246688" stroke="#246688" stroke-linejoin="bevel"/>
<path d="M30.4502 805H153.75L150.75 651.55L30.4502 805Z" fill="#112E42" stroke="#112E42" stroke-linejoin="bevel"/>
<path d="M266.25 744.85L153.75 805H412.2L266.25 744.85Z" fill="#205A7A" stroke="#205A7A" stroke-linejoin="bevel"/>
<path d="M30.4502 805L150.75 651.55L70.9502 606.85L30.4502 805Z" fill="#081A28" stroke="#081A28" stroke-linejoin="bevel"/>
<path d="M-36 188.95V327.1L85.95 310.45L-36 188.95Z" fill="#15384F" stroke="#15384F" stroke-linejoin="bevel"/>
<path d="M21.45 348.1L-36 495.55L34.95 478.9L21.45 348.1Z" fill="#19435D" stroke="#19435D" stroke-linejoin="bevel"/>
<path d="M-36 327.1V495.55L21.45 348.1L-36 327.1Z" fill="#246688" stroke="#246688" stroke-linejoin="bevel"/>
<path d="M6.45 519.55L-36 516.4L70.95 606.85L6.45 519.55Z" fill="#0C2435" stroke="#0C2435" stroke-linejoin="bevel"/>
<path d="M-36 495.55V516.4L6.45 519.55L-36 495.55Z" fill="#00101C" stroke="#00101C" stroke-linejoin="bevel"/>
<path d="M-36 154.15V188.95L179.25 235.45L-36 154.15Z" fill="#15384F" stroke="#15384F" stroke-linejoin="bevel"/>
<path d="M10.95 50.65L-36 154.15L179.25 235.45L10.95 50.65Z" fill="#205A7A" stroke="#205A7A" stroke-linejoin="bevel"/>
<path d="M136.95 -5L10.9502 50.65L179.25 235.45L136.95 -5Z" fill="#00101C" stroke="#00101C" stroke-linejoin="bevel"/>
<path d="M-36 719.35L30.45 805L70.95 606.85L-36 719.35Z" fill="#277297" stroke="#277297" stroke-linejoin="bevel"/>
<path d="M-36 516.4V719.35L70.95 606.85L-36 516.4Z" fill="#19435D" stroke="#19435D" stroke-linejoin="bevel"/>
<path d="M136.95 -5H-36L10.95 50.65L136.95 -5Z" fill="#00101C" stroke="#00101C" stroke-linejoin="bevel"/>
<path d="M10.95 50.65L-36 -5V154.15L10.95 50.65Z" fill="#246688" stroke="#246688" stroke-linejoin="bevel"/>
<path d="M-36 719.35V805H30.45L-36 719.35Z" fill="#277297" stroke="#277297" stroke-linejoin="bevel"/>
</g>
<defs>
<clipPath id="clip0_2013_834">
<rect width="1440" height="810" fill="white" transform="translate(-36 -5)"/>
</clipPath>
</defs>
</svg>
