<svg width="18" height="18" viewBox="0 0 18 18" fill="none" xmlns="http://www.w3.org/2000/svg">
<path d="M5.625 6.75H7.875V9H5.625V6.75ZM9 6.75H11.25V9H9V6.75ZM12.375 6.75H14.625V9H12.375V6.75ZM2.25 13.5H4.5V15.75H2.25V13.5ZM5.625 13.5H7.875V15.75H5.625V13.5ZM9 13.5H11.25V15.75H9V13.5ZM5.625 10.125H7.875V12.375H5.625V10.125ZM9 10.125H11.25V12.375H9V10.125ZM12.375 10.125H14.625V12.375H12.375V10.125ZM2.25 10.125H4.5V12.375H2.25V10.125ZM14.625 0V1.125H12.375V0H4.5V1.125H2.25V0H0V18H16.875V0H14.625ZM15.75 16.875H1.125V4.5H15.75V16.875Z" fill="#1A1A1A"/>
</svg>
