<svg width="24" height="24" viewBox="0 0 24 24" fill="none" xmlns="http://www.w3.org/2000/svg">
<path d="M11.9953 0C9.24689 0.000397721 6.61112 1.09239 4.66767 3.03584C2.72423 4.97929 1.63223 7.61505 1.63184 10.3635C1.63184 15.7875 6.57284 20.184 11.9953 20.184V24C18.2908 20.808 22.3693 15.666 22.3693 10.3635C22.3693 4.6395 17.7193 0 11.9953 0V0ZM10.4998 12C10.4998 13.242 9.82934 14.25 8.99984 14.25V12H5.99984V7.5H10.4998V12ZM17.9998 12C17.9998 13.242 17.3293 14.25 16.4998 14.25V12H13.4998V7.5H17.9998V12Z" fill="currentColor"/>
</svg>
