<svg width="14" height="14" viewBox="0 0 14 14" fill="none" xmlns="http://www.w3.org/2000/svg">
<g clip-path="url(#clip0_629_1143)">
<path d="M13.872 11.2472L9.62473 6.99998L13.872 2.75273C13.9534 2.67035 13.999 2.55921 13.999 2.44341C13.999 2.32761 13.9534 2.21648 13.872 2.1341L11.8656 0.127725C11.825 0.0870091 11.7768 0.0547026 11.7238 0.0326588C11.6707 0.0106149 11.6138 -0.000732422 11.5563 -0.000732422C11.4988 -0.000732422 11.4419 0.0106149 11.3888 0.0326588C11.3358 0.0547026 11.2875 0.0870091 11.247 0.127725L6.99973 4.37498L2.75248 0.127725C2.67044 0.0457065 2.55918 -0.00036893 2.44317 -0.00036893C2.32716 -0.00036893 2.2159 0.0457065 2.13386 0.127725L0.127481 2.1341C0.086765 2.17467 0.0544585 2.22287 0.0324146 2.27595C0.0103708 2.32903 -0.000976562 2.38594 -0.000976562 2.44341C-0.000976562 2.50089 0.0103708 2.5578 0.0324146 2.61088C0.0544585 2.66396 0.086765 2.71216 0.127481 2.75273L4.37473 6.99998L0.127481 11.2472C0.0454624 11.3293 -0.000613071 11.4405 -0.000613071 11.5565C-0.000613071 11.6725 0.0454624 11.7838 0.127481 11.8659L2.13386 13.8722C2.17442 13.9129 2.22263 13.9452 2.27571 13.9673C2.32878 13.9893 2.38569 14.0007 2.44317 14.0007C2.50064 14.0007 2.55755 13.9893 2.61063 13.9673C2.66371 13.9452 2.71192 13.9129 2.75248 13.8722L6.99973 9.62498L11.247 13.8722C11.329 13.9542 11.4403 14.0003 11.5563 14.0003C11.6723 14.0003 11.7836 13.9542 11.8656 13.8722L13.872 11.8659C13.9127 11.8253 13.945 11.7771 13.967 11.724C13.9891 11.6709 14.0004 11.614 14.0004 11.5565C14.0004 11.4991 13.9891 11.4422 13.967 11.3891C13.945 11.336 13.9127 11.2878 13.872 11.2472Z" fill="#0E1721"/>
</g>
<defs>
<clipPath id="clip0_629_1143">
<rect width="14" height="14" fill="white"/>
</clipPath>
</defs>
</svg>
